<svg width="55" height="51" viewBox="0 0 55 51" fill="none" xmlns="http://www.w3.org/2000/svg">
<path d="M45.3689 34.0399L52.8336 4.81151H61V0.217224H49.2652L47.5055 7.10731L0 7.07332L5.05054 34.0397H45.3689V34.0399ZM46.3325 11.7008L41.8005 29.4456H8.86421L5.53531 11.6716L46.3325 11.7008Z" fill="black"/>
<path d="M39.0797 50.7828C43.1308 50.7828 46.4267 47.4869 46.4267 43.4357C46.4267 39.3846 43.1308 36.0888 39.0797 36.0888H11.399C7.34789 36.0888 4.05196 39.3846 4.05196 43.4357C4.05196 47.4869 7.34782 50.7828 11.399 50.7828C15.4503 50.7828 18.746 47.4869 18.746 43.4357C18.746 42.4628 18.5555 41.5337 18.2105 40.6831H32.2683C31.9232 41.5337 31.7326 42.4628 31.7326 43.4357C31.7327 47.4869 35.0285 50.7828 39.0797 50.7828ZM14.1518 43.4357C14.1518 44.9537 12.9169 46.1885 11.399 46.1885C9.88116 46.1885 8.64625 44.9537 8.64625 43.4357C8.64625 41.9179 9.8811 40.6831 11.399 40.6831C12.9169 40.6831 14.1518 41.9179 14.1518 43.4357ZM41.8325 43.4357C41.8325 44.9537 40.5976 46.1885 39.0798 46.1885C37.5619 46.1885 36.327 44.9537 36.327 43.4357C36.327 41.9179 37.5619 40.6831 39.0798 40.6831C40.5976 40.6831 41.8325 41.9179 41.8325 43.4357Z" fill="black"/>
</svg>
